<svg width="42" height="30" viewBox="0 0 42 30" fill="none" xmlns="http://www.w3.org/2000/svg">
<path d="M35.6668 7.66658H30.1668V0.333252H4.50016C2.4835 0.333252 0.833496 1.98325 0.833496 3.99992V24.1666H4.50016C4.50016 27.2099 6.95683 29.6666 10.0002 29.6666C13.0435 29.6666 15.5002 27.2099 15.5002 24.1666H26.5002C26.5002 27.2099 28.9568 29.6666 32.0002 29.6666C35.0435 29.6666 37.5002 27.2099 37.5002 24.1666H41.1668V14.9999L35.6668 7.66658ZM10.0002 26.9166C8.4785 26.9166 7.25016 25.6882 7.25016 24.1666C7.25016 22.6449 8.4785 21.4166 10.0002 21.4166C11.5218 21.4166 12.7502 22.6449 12.7502 24.1666C12.7502 25.6882 11.5218 26.9166 10.0002 26.9166ZM34.7502 10.4166L38.3435 14.9999H30.1668V10.4166H34.7502ZM32.0002 26.9166C30.4785 26.9166 29.2502 25.6882 29.2502 24.1666C29.2502 22.6449 30.4785 21.4166 32.0002 21.4166C33.5218 21.4166 34.7502 22.6449 34.7502 24.1666C34.7502 25.6882 33.5218 26.9166 32.0002 26.9166Z" fill="#FCFF6F"/>
</svg>
