<svg width="34" height="38" viewBox="0 0 34 38" fill="none" xmlns="http://www.w3.org/2000/svg">
<path d="M29.8333 4.49992H22.17C21.4 2.37325 19.3833 0.833252 17 0.833252C14.6167 0.833252 12.6 2.37325 11.83 4.49992H4.16667C2.15 4.49992 0.5 6.14992 0.5 8.16659V33.8333C0.5 35.8499 2.15 37.4999 4.16667 37.4999H29.8333C31.85 37.4999 33.5 35.8499 33.5 33.8333V8.16659C33.5 6.14992 31.85 4.49992 29.8333 4.49992ZM17 4.49992C18.0083 4.49992 18.8333 5.32492 18.8333 6.33325C18.8333 7.34159 18.0083 8.16659 17 8.16659C15.9917 8.16659 15.1667 7.34159 15.1667 6.33325C15.1667 5.32492 15.9917 4.49992 17 4.49992ZM13.3333 30.1666L6 22.8333L8.585 20.2483L13.3333 24.9783L25.415 12.8966L28 15.4999L13.3333 30.1666Z" fill="#FCFF6F"/>
</svg>
