<svg width="131" height="31" viewBox="0 0 131 31" fill="none" xmlns="http://www.w3.org/2000/svg">
<path d="M19.4699 8.144H27.8699V11.84H25.6379V26H21.7019V11.84H19.4699V8.144ZM28.3801 26V8.144H37.5241V26H33.5641V11.84H32.3401V26H28.3801ZM44.1022 26L42.3262 18.872V26H38.3662V8.144H42.3262V14.48L44.1742 8.144H48.1102L45.6862 16.088L48.2542 26H44.1022ZM56.467 26L56.179 23.384H54.355L54.091 26H50.659L52.939 8.144H57.811L60.307 26H56.467ZM55.267 14.432L54.715 19.856H55.819L55.267 14.432ZM60.5609 26V8.144H66.5609C67.6169 8.144 68.4009 8.408 68.9129 8.936C69.4409 9.464 69.7049 10.32 69.7049 11.504V13.472C69.7049 14.224 69.5209 14.832 69.1529 15.296C68.8009 15.76 68.4329 16.056 68.0489 16.184C69.3769 16.6 70.0409 17.616 70.0409 19.232V21.872C70.0409 24.624 68.9609 26 66.8009 26H60.5609ZM65.1689 18.128H64.5209V22.832H65.2409C65.4809 22.832 65.6489 22.768 65.7449 22.64C65.8569 22.496 65.9129 22.24 65.9129 21.872V19.04C65.9129 18.704 65.8569 18.472 65.7449 18.344C65.6489 18.2 65.4569 18.128 65.1689 18.128ZM65.0969 11.192H64.5209V15.032H65.0729C65.5529 15.032 65.7929 14.736 65.7929 14.144V12.032C65.7929 11.744 65.7449 11.536 65.6489 11.408C65.5529 11.264 65.3689 11.192 65.0969 11.192ZM70.1418 8.144H78.5418V11.84H76.3098V26H72.3738V11.84H70.1418V8.144ZM88.5828 12.944V21.416C88.5828 22.952 88.1908 24.144 87.4068 24.992C86.6228 25.84 85.5428 26.264 84.1668 26.264H83.3988C81.9588 26.264 80.8548 25.848 80.0868 25.016C79.3188 24.168 78.9348 22.968 78.9348 21.416V12.944C78.9348 9.584 80.4148 7.904 83.3748 7.904H84.1428C87.1028 7.904 88.5828 9.584 88.5828 12.944ZM84.4788 21.68V12.536C84.4788 11.864 84.2388 11.528 83.7588 11.528C83.2788 11.528 83.0388 11.864 83.0388 12.536V21.68C83.0388 22.272 83.2868 22.568 83.7828 22.568C84.2468 22.568 84.4788 22.272 84.4788 21.68ZM89.2238 26V8.144H98.3678V26H94.4078V11.84H93.1838V26H89.2238ZM105.018 19.112H103.122V26H99.1859V8.144H104.898C106.066 8.144 106.914 8.44 107.442 9.032C107.986 9.624 108.258 10.528 108.258 11.744V15.44C108.258 16.608 107.97 17.512 107.394 18.152C106.834 18.792 106.042 19.112 105.018 19.112ZM103.122 11.264V15.824H103.602C103.874 15.824 104.058 15.76 104.154 15.632C104.25 15.488 104.298 15.264 104.298 14.96V12.152C104.298 11.848 104.25 11.624 104.154 11.48C104.058 11.336 103.874 11.264 103.602 11.264H103.122ZM118.489 12.944V21.416C118.489 22.952 118.097 24.144 117.313 24.992C116.529 25.84 115.449 26.264 114.073 26.264H113.305C111.865 26.264 110.761 25.848 109.993 25.016C109.225 24.168 108.841 22.968 108.841 21.416V12.944C108.841 9.584 110.321 7.904 113.281 7.904H114.049C117.009 7.904 118.489 9.584 118.489 12.944ZM114.385 21.68V12.536C114.385 11.864 114.145 11.528 113.665 11.528C113.185 11.528 112.945 11.864 112.945 12.536V21.68C112.945 22.272 113.193 22.568 113.689 22.568C114.153 22.568 114.385 22.272 114.385 21.68ZM119.178 26V8.144H123.906L124.89 16.496L125.922 8.144H130.386V26H126.978V16.256L125.466 26H124.05L122.538 16.256V26H119.178Z" fill="#452E0A"/>
<path fill-rule="evenodd" clip-rule="evenodd" d="M16 27.5354C16 29.1939 14.6555 30.5385 12.9969 30.5385V30.5385C12.6706 30.5385 12.4062 30.274 12.4062 29.9477V27.3747C12.4062 27.0955 12.2102 26.856 11.9397 26.7868C10.8992 26.5203 9.9161 26.1103 9.01285 25.5792C8.77286 25.438 8.4661 25.4693 8.26924 25.6661L6.41089 27.5245C6.18018 27.7552 5.80613 27.7552 5.57542 27.5245L3.069 25.0181C2.83829 24.7874 2.83829 24.4133 3.069 24.1826L4.91329 22.3383C5.11125 22.1403 5.14163 21.8315 4.9981 21.5911C4.44807 20.6699 4.02461 19.6645 3.75171 18.5987C3.68245 18.3282 3.443 18.1323 3.1638 18.1323H0.590769C0.264496 18.1323 0 17.8678 0 17.5415V13.9969C0 13.6706 0.264497 13.4062 0.59077 13.4062H3.1638C3.443 13.4062 3.68246 13.2102 3.75171 12.9397C4.02138 11.8866 4.43809 10.8923 4.97866 9.98005C5.12098 9.73988 5.09016 9.43206 4.89276 9.23465L3.0762 7.41809C2.84549 7.18738 2.84549 6.81333 3.0762 6.58262L5.58262 4.0762C5.81333 3.84549 6.18739 3.84549 6.4181 4.0762L8.23465 5.89275C8.43206 6.09016 8.73988 6.12098 8.98006 5.97865C9.89229 5.43809 10.8866 5.02138 11.9397 4.75171C12.2102 4.68245 12.4062 4.443 12.4062 4.1638V1.59077C12.4062 1.2645 12.6707 1 12.9969 1V1C14.6555 1 16 2.34452 16 4.00307V10.2549C16 10.4287 15.8392 10.5571 15.6678 10.5279V10.5279C15.5095 10.501 15.3681 10.6262 15.3681 10.7868V11.0366C15.3681 11.214 15.2129 11.3506 15.0357 11.3427C14.9718 11.3399 14.9076 11.3385 14.8431 11.3385C14.7089 11.3385 14.5761 11.3446 14.4449 11.3567C14.2621 11.3736 14.0963 11.2351 14.0963 11.0515V11.0515C14.0963 10.7559 13.8362 10.5255 13.5484 10.5931C13.4419 10.6181 13.3367 10.6464 13.2328 10.6777C12.9259 10.7702 12.8082 11.1279 12.9685 11.4055V11.4055C13.0567 11.5583 12.9916 11.7532 12.8357 11.8357C12.6608 11.9282 12.4928 12.0324 12.3328 12.1473C12.1831 12.2548 11.9691 12.2182 11.877 12.0586V12.0586C11.7129 11.7744 11.335 11.6969 11.0976 11.9236C11.0496 11.9694 11.0025 12.0162 10.9562 12.0638C10.71 12.317 10.7935 12.724 11.0994 12.9006V12.9006C11.2533 12.9894 11.2937 13.1928 11.1974 13.3421C11.0906 13.5077 10.9943 13.6811 10.9097 13.8612C10.8322 14.0261 10.6309 14.0986 10.4731 14.0075V14.0075C10.1594 13.8264 9.75504 13.9595 9.65569 14.3078C9.64591 14.342 9.63647 14.3765 9.62736 14.411C9.53289 14.7696 9.82231 15.0964 10.1931 15.0964V15.0964C10.3737 15.0964 10.5113 15.2571 10.4982 15.4372C10.4902 15.5468 10.4862 15.6575 10.4862 15.7692C10.4862 15.8576 10.4887 15.9454 10.4937 16.0326C10.504 16.2109 10.367 16.3682 10.1884 16.3682V16.3682C9.81365 16.3682 9.51927 16.6957 9.6099 17.0593C9.61919 17.0966 9.62888 17.1337 9.63895 17.1707C9.73349 17.5176 10.1347 17.6524 10.4461 17.4727V17.4727C10.6054 17.3807 10.8087 17.4555 10.8847 17.6231C10.9669 17.8044 11.0608 17.979 11.1655 18.1461C11.2589 18.2953 11.2175 18.4958 11.0651 18.5838V18.5838C10.7557 18.7624 10.6688 19.1728 10.9149 19.4318C10.966 19.4855 11.0182 19.5382 11.0715 19.5897C11.3064 19.8171 11.6835 19.7412 11.8469 19.4581V19.4581C11.9396 19.2976 12.1552 19.2616 12.3049 19.3709C12.4641 19.4871 12.6312 19.5927 12.8054 19.6866C12.9598 19.7698 13.0236 19.9636 12.9359 20.1155V20.1155C12.7744 20.3952 12.8915 20.7556 13.2002 20.8508C13.3146 20.8861 13.4308 20.9177 13.5484 20.9453C13.8362 21.0129 14.0963 20.7826 14.0963 20.487V20.487C14.0963 20.3034 14.2621 20.1649 14.4449 20.1817C14.5761 20.1938 14.7089 20.2 14.8431 20.2C14.9076 20.2 14.9718 20.1986 15.0357 20.1957C15.2129 20.1879 15.3681 20.3245 15.3681 20.5018V20.7516C15.3681 20.9122 15.5095 21.0375 15.6678 21.0105V21.0105C15.8392 20.9814 16 21.1097 16 21.2836V27.5354Z" fill="#E7E035"/>
</svg>
